HIERARCHY
ROOT root
{
  OFFSET 0 10 0
  CHANNELS 6 Xposition Yposition Zposition Zrotation Xrotation Yrotation
  JOINT foot_0_0
  {
    OFFSET 0 -7.5 0
    CHANNELS 3 Zrotation Xrotation Yrotation
    JOINT foot_0_1
    {
      OFFSET 3.62407 -2.5 3.82084
      CHANNELS 3 Zrotation Xrotation Yrotation
      End Site
      {
        OFFSET 0.45695 0 5.01038
      }
    }
  }
  JOINT foot_1_0
  {
    OFFSET 0 -7.5 0
    CHANNELS 3 Zrotation Xrotation Yrotation
    JOINT foot_1_1
    {
      OFFSET -3.62407 -2.5 3.82084
      CHANNELS 3 Zrotation Xrotation Yrotation
      End Site
      {
        OFFSET -0.45695 0 5.01038
      }
    }
  }
  JOINT foot_2_0
  {
    OFFSET 0 -7.5 0
    CHANNELS 3 Zrotation Xrotation Yrotation
    JOINT foot_2_1
    {
      OFFSET 0 -2.5 -2.5
      CHANNELS 3 Zrotation Xrotation Yrotation
      End Site
      {
        OFFSET 0 0 -2.5
      }
    }
  }
}
MOTION
Frames:	131
Frame Time:	0.0333333
0 10 0 0 0 -0 0 0 -0 0 1.26 -0 0 0 -0 0 1.26 -0 0 0 -0 -0 -1.26 -0 
0 10 0 0 0 -0 0 0 -0 0 4.68 -0 0 0 -0 0 4.68 -0 0 0 -0 -0 -4.68 -0 
0 10 0 0 0 -0 0 0 -0 0 9.72 -0 0 0 -0 0 9.72 -0 0 0 -0 -0 -9.72 -0 
0 10 0 0 0 -0 0 0 -0 0 15.84 -0 0 0 -0 0 15.84 -0 0 0 -0 -0 -15.84 -0 
0 10 0 0 0 -0 0 0 -0 0 22.5 -0 0 0 -0 0 22.5 -0 0 0 -0 -0 -22.5 -0 
0 10 0 0 0 -0 0 0 -0 0 29.16 -0 0 0 -0 0 29.16 -0 0 0 -0 -0 -29.16 -0 
0 10 0 0 0 -0 0 0 -0 0 35.28 -0 0 0 -0 0 35.28 -0 0 0 -0 -0 -35.28 -0 
0 10 0 0 0 -0 0 0 -0 0 40.32 -0 0 0 -0 0 40.32 -0 0 0 -0 -0 -40.32 -0 
0 10 0 0 0 -0 0 0 -0 0 43.74 -0 0 0 -0 0 43.74 -0 0 0 -0 -0 -43.74 -0 
0 10 0 0 0 -0 0 0 -0 0 45 -0 0 0 -0 0 45 -0 0 0 -0 -0 -45 -0 
0 10 0 0 0 -0 0 0 -0 0 43.74 -0 0 0 -0 0 43.74 -0 0 0 -0 -0 -43.74 -0 
0 10 0 0 0 -0 0 0 -0 0 40.32 -0 0 0 -0 0 40.32 -0 0 0 -0 -0 -40.32 -0 
0 10 0 0 0 -0 0 0 -0 0 35.28 -0 0 0 -0 0 35.28 -0 0 0 -0 -0 -35.28 -0 
0 10 0 0 0 -0 0 0 -0 0 29.16 -0 0 0 -0 0 29.16 -0 0 0 -0 -0 -29.16 -0 
0 10 0 0 0 -0 0 0 -0 0 22.5 -0 0 0 -0 0 22.5 -0 0 0 -0 -0 -22.5 -0 
0 10 0 0 0 -0 0 0 -0 0 15.84 -0 0 0 -0 0 15.84 -0 0 0 -0 -0 -15.84 -0 
0 10 0 0 0 -0 0 0 -0 0 9.72 -0 0 0 -0 0 9.72 -0 0 0 -0 -0 -9.72 -0 
0 10 0 0 0 -0 0 0 -0 0 4.68 -0 0 0 -0 0 4.68 -0 0 0 -0 -0 -4.68 -0 
0 10 0 0 0 -0 0 0 -0 0 1.26 -0 0 0 -0 0 1.26 -0 0 0 -0 -0 -1.26 -0 
0 10 0 0 0 -0 0 0 -0 0 0 -0 0 0 -0 0 0 -0 0 0 -0 0 0 -0 
0 10 0 0 0 -0 0 0 -0 0 1.26 -0 0 0 -0 0 1.26 -0 0 0 -0 -0 -1.26 -0 
0 10 0 0 0 -0 0 0 -0 0 4.68 -0 0 0 -0 0 4.68 -0 0 0 -0 -0 -4.68 -0 
0 10 0 0 0 -0 0 0 -0 0 9.72 -0 0 0 -0 0 9.72 -0 0 0 -0 -0 -9.72 -0 
0 10 0 0 0 -0 0 0 -0 0 15.84 -0 0 0 -0 0 15.84 -0 0 0 -0 -0 -15.84 -0 
0 10 0 0 0 -0 0 0 -0 0 22.5 -0 0 0 -0 0 22.5 -0 0 0 -0 -0 -22.5 -0 
0 10 0 0 0 -0 0 0 -0 0 29.16 -0 0 0 -0 0 29.16 -0 0 0 -0 -0 -29.16 -0 
0 10 0 0 0 -0 0 0 -0 0 35.28 -0 0 0 -0 0 35.28 -0 0 0 -0 -0 -35.28 -0 
0 10 0 0 0 -0 0 0 -0 0 40.32 -0 0 0 -0 0 40.32 -0 0 0 -0 -0 -40.32 -0 
0 10 0 0 0 -0 0 0 -0 0 43.74 -0 0 0 -0 0 43.74 -0 0 0 -0 -0 -43.74 -0 
0 10 0 0 0 -0 0 0 -0 0 45 -0 0 0 -0 0 45 -0 0 0 -0 -0 -45 -0 
0 10 0 0 0 -0 0 0 -0 0 43.74 -0 0 0 -0 0 43.74 -0 0 0 -0 -0 -43.74 -0 
0 10 0 0 0 -0 0 0 -0 0 40.32 -0 0 0 -0 0 40.32 -0 0 0 -0 -0 -40.32 -0 
0 10 0 0 0 -0 0 0 -0 0 35.28 -0 0 0 -0 0 35.28 -0 0 0 -0 -0 -35.28 -0 
0 10 0 0 0 -0 0 0 -0 0 29.16 -0 0 0 -0 0 29.16 -0 0 0 -0 -0 -29.16 -0 
0 10 0 0 0 -0 0 0 -0 0 22.5 -0 0 0 -0 0 22.5 -0 0 0 -0 -0 -22.5 -0 
0 10 0 0 0 -0 0 0 -0 0 15.84 -0 0 0 -0 0 15.84 -0 0 0 -0 -0 -15.84 -0 
0 10 0 0 0 -0 0 0 -0 0 9.72 -0 0 0 -0 0 9.72 -0 0 0 -0 -0 -9.72 -0 
0 10 0 0 0 -0 0 0 -0 0 4.68 -0 0 0 -0 0 4.68 -0 0 0 -0 -0 -4.68 -0 
0 10 0 0 0 -0 0 0 -0 0 1.26 -0 0 0 -0 0 1.26 -0 0 0 -0 -0 -1.26 -0 
0 10 0 0 0 -0 0 0 -0 0 0 -0 0 0 -0 0 0 -0 0 0 -0 0 0 -0 
0 10 0 0 0 -0 0 0 -0 0 1.26 -0 0 0 -0 0 1.26 -0 0 0 -0 -0 -1.26 -0 
0 10 0 0 0 -0 0 0 -0 0 4.68 -0 0 0 -0 0 4.68 -0 0 0 -0 -0 -4.68 -0 
0 10 0 0 0 -0 0 0 -0 0 9.72 -0 0 0 -0 0 9.72 -0 0 0 -0 -0 -9.72 -0 
0 10 0 0 0 -0 0 0 -0 0 15.84 -0 0 0 -0 0 15.84 -0 0 0 -0 -0 -15.84 -0 
0 10 0 0 0 -0 0 0 -0 0 22.5 -0 0 0 -0 0 22.5 -0 0 0 -0 -0 -22.5 -0 
0 10 0 0 0 -0 0 0 -0 0 29.16 -0 0 0 -0 0 29.16 -0 0 0 -0 -0 -29.16 -0 
0 10 0 0 0 -0 0 0 -0 0 35.28 -0 0 0 -0 0 35.28 -0 0 0 -0 -0 -35.28 -0 
0 10 0 0 0 -0 0 0 -0 0 40.32 -0 0 0 -0 0 40.32 -0 0 0 -0 -0 -40.32 -0 
0 10 0 0 0 -0 0 0 -0 0 43.74 -0 0 0 -0 0 43.74 -0 0 0 -0 -0 -43.74 -0 
0 10 0 0 0 -0 0 0 -0 0 45 -0 0 0 -0 0 45 -0 0 0 -0 -0 -45 -0 
0 10 0 0 0 -0 0 0 -0 0 43.74 -0 0 0 -0 0 43.74 -0 0 0 -0 -0 -43.74 -0 
0 10 0 0 0 -0 0 0 -0 0 40.32 -0 0 0 -0 0 40.32 -0 0 0 -0 -0 -40.32 -0 
0 10 0 0 0 -0 0 0 -0 0 35.28 -0 0 0 -0 0 35.28 -0 0 0 -0 -0 -35.28 -0 
0 10 0 0 0 -0 0 0 -0 0 29.16 -0 0 0 -0 0 29.16 -0 0 0 -0 -0 -29.16 -0 
0 10 0 0 0 -0 0 0 -0 0 22.5 -0 0 0 -0 0 22.5 -0 0 0 -0 -0 -22.5 -0 
0 10 0 0 0 -0 0 0 -0 0 15.84 -0 0 0 -0 0 15.84 -0 0 0 -0 -0 -15.84 -0 
0 10 0 0 0 -0 0 0 -0 0 9.72 -0 0 0 -0 0 9.72 -0 0 0 -0 -0 -9.72 -0 
0 10 0 0 0 -0 0 0 -0 0 4.68 -0 0 0 -0 0 4.68 -0 0 0 -0 -0 -4.68 -0 
0 10 0 0 0 -0 0 0 -0 0 1.26 -0 0 0 -0 0 1.26 -0 0 0 -0 -0 -1.26 -0 
0 10 0 0 0 -0 0 0 -0 0 0 -0 0 0 -0 0 0 -0 0 0 -0 0 0 -0 
0 10 0 0 0 -0 0 0 -0 0 1.26 -0 0 0 -0 0 1.26 -0 0 0 -0 -0 -1.26 -0 
0 10 0 0 0 -0 0 0 -0 0 4.68 -0 0 0 -0 0 4.68 -0 0 0 -0 -0 -4.68 -0 
0 10 0 0 0 -0 0 0 -0 0 9.72 -0 0 0 -0 0 9.72 -0 0 0 -0 -0 -9.72 -0 
0 10 0 0 0 -0 0 0 -0 0 15.84 -0 0 0 -0 0 15.84 -0 0 0 -0 -0 -15.84 -0 
0 10 0 0 0 -0 0 0 -0 0 22.5 -0 0 0 -0 0 22.5 -0 0 0 -0 -0 -22.5 -0 
0 10 0 0 0 -0 0 0 -0 0 29.16 -0 0 0 -0 0 29.16 -0 0 0 -0 -0 -29.16 -0 
0 10 0 0 0 -0 0 0 -0 0 35.28 -0 0 0 -0 0 35.28 -0 0 0 -0 -0 -35.28 -0 
0 10 0 0 0 -0 0 0 -0 0 40.32 -0 0 0 -0 0 40.32 -0 0 0 -0 -0 -40.32 -0 
0 10 0 0 0 -0 0 0 -0 0 43.74 -0 0 0 -0 0 43.74 -0 0 0 -0 -0 -43.74 -0 
0 10 0 0 0 -0 0 0 -0 0 45 -0 0 0 -0 0 45 -0 0 0 -0 -0 -45 -0 
0 10 0 0 0 -0 0 0 -0 0 43.74 -0 0 0 -0 0 43.74 -0 0 0 -0 -0 -43.74 -0 
0 10 0 0 0 -0 0 0 -0 0 40.32 -0 0 0 -0 0 40.32 -0 0 0 -0 -0 -40.32 -0 
0 10 0 0 0 -0 0 0 -0 0 35.28 -0 0 0 -0 0 35.28 -0 0 0 -0 -0 -35.28 -0 
0 10 0 0 0 -0 0 0 -0 0 29.16 -0 0 0 -0 0 29.16 -0 0 0 -0 -0 -29.16 -0 
0 10 0 0 0 -0 0 0 -0 0 22.5 -0 0 0 -0 0 22.5 -0 0 0 -0 -0 -22.5 -0 
0 10 0 0 0 -0 0 0 -0 0 15.84 -0 0 0 -0 0 15.84 -0 0 0 -0 -0 -15.84 -0 
0 10 0 0 0 -0 0 0 -0 0 9.72 -0 0 0 -0 0 9.72 -0 0 0 -0 -0 -9.72 -0 
0 10 0 0 0 -0 0 0 -0 0 4.68 -0 0 0 -0 0 4.68 -0 0 0 -0 -0 -4.68 -0 
0 10 0 0 0 -0 0 0 -0 0 1.26 -0 0 0 -0 0 1.26 -0 0 0 -0 -0 -1.26 -0 
0 10 0 0 0 -0 0 0 -0 0 0 -0 0 0 -0 0 0 -0 0 0 -0 0 0 -0 
0 10 0 0 0 -0 0 0 -0 0 1.26 -0 0 0 -0 0 1.26 -0 0 0 -0 -0 -1.26 -0 
0 10 0 0 0 -0 0 0 -0 0 4.68 -0 0 0 -0 0 4.68 -0 0 0 -0 -0 -4.68 -0 
0 10 0 0 0 -0 0 0 -0 0 9.72 -0 0 0 -0 0 9.72 -0 0 0 -0 -0 -9.72 -0 
0 10 0 0 0 -0 0 0 -0 0 15.84 -0 0 0 -0 0 15.84 -0 0 0 -0 -0 -15.84 -0 
0 10 0 0 0 -0 0 0 -0 0 22.5 -0 0 0 -0 0 22.5 -0 0 0 -0 -0 -22.5 -0 
0 10 0 0 0 -0 0 0 -0 0 29.16 -0 0 0 -0 0 29.16 -0 0 0 -0 -0 -29.16 -0 
0 10 0 0 0 -0 0 0 -0 0 35.28 -0 0 0 -0 0 35.28 -0 0 0 -0 -0 -35.28 -0 
0 10 0 0 0 -0 0 0 -0 0 40.32 -0 0 0 -0 0 40.32 -0 0 0 -0 -0 -40.32 -0 
0 10 0 0 0 -0 0 0 -0 0 43.74 -0 0 0 -0 0 43.74 -0 0 0 -0 -0 -43.74 -0 
0 10 0 0 0 -0 0 0 -0 0 45 -0 0 0 -0 0 45 -0 0 0 -0 -0 -45 -0 
0 10 0 0 0 -0 0 0 -0 0 43.74 -0 0 0 -0 0 43.74 -0 0 0 -0 -0 -43.74 -0 
0 10 0 0 0 -0 0 0 -0 0 40.32 -0 0 0 -0 0 40.32 -0 0 0 -0 -0 -40.32 -0 
0 10 0 0 0 -0 0 0 -0 0 35.28 -0 0 0 -0 0 35.28 -0 0 0 -0 -0 -35.28 -0 
0 10 0 0 0 -0 0 0 -0 0 29.16 -0 0 0 -0 0 29.16 -0 0 0 -0 -0 -29.16 -0 
0 10 0 0 0 -0 0 0 -0 0 22.5 -0 0 0 -0 0 22.5 -0 0 0 -0 -0 -22.5 -0 
0 10 0 0 0 -0 0 0 -0 0 15.84 -0 0 0 -0 0 15.84 -0 0 0 -0 -0 -15.84 -0 
0 10 0 0 0 -0 0 0 -0 0 9.72 -0 0 0 -0 0 9.72 -0 0 0 -0 -0 -9.72 -0 
0 10 0 0 0 -0 0 0 -0 0 4.68 -0 0 0 -0 0 4.68 -0 0 0 -0 -0 -4.68 -0 
0 10 0 0 0 -0 0 0 -0 0 1.26 -0 0 0 -0 0 1.26 -0 0 0 -0 -0 -1.26 -0 
0 10 0 0 0 -0 0 0 -0 0 0 -0 0 0 -0 0 0 -0 0 0 -0 0 0 -0 
0 10 0 0 0 -0 0 0 -0 0 1.26 -0 0 0 -0 0 1.26 -0 0 0 -0 -0 -1.26 -0 
0 10 0 0 0 -0 0 0 -0 0 4.68 -0 0 0 -0 0 4.68 -0 0 0 -0 -0 -4.68 -0 
0 10 0 0 0 -0 0 0 -0 0 9.72 -0 0 0 -0 0 9.72 -0 0 0 -0 -0 -9.72 -0 
0 10 0 0 0 -0 0 0 -0 0 15.84 -0 0 0 -0 0 15.84 -0 0 0 -0 -0 -15.84 -0 
0 10 0 0 0 -0 0 0 -0 0 22.5 -0 0 0 -0 0 22.5 -0 0 0 -0 -0 -22.5 -0 
0 10 0 0 0 -0 0 0 -0 0 29.16 -0 0 0 -0 0 29.16 -0 0 0 -0 -0 -29.16 -0 
0 10 0 0 0 -0 0 0 -0 0 35.28 -0 0 0 -0 0 35.28 -0 0 0 -0 -0 -35.28 -0 
0 10 0 0 0 -0 0 0 -0 0 40.32 -0 0 0 -0 0 40.32 -0 0 0 -0 -0 -40.32 -0 
0 10 0 0 0 -0 0 0 -0 0 43.74 -0 0 0 -0 0 43.74 -0 0 0 -0 -0 -43.74 -0 
0 10 0 0 0 -0 0 0 -0 0 45 -0 0 0 -0 0 45 -0 0 0 -0 -0 -45 -0 
0 10 0 0 0 -0 0 0 -0 0 43.74 -0 0 0 -0 0 43.74 -0 0 0 -0 -0 -43.74 -0 
0 10 0 0 0 -0 0 0 -0 0 40.32 -0 0 0 -0 0 40.32 -0 0 0 -0 -0 -40.32 -0 
0 10 0 0 0 -0 0 0 -0 0 35.28 -0 0 0 -0 0 35.28 -0 0 0 -0 -0 -35.28 -0 
0 10 0 0 0 -0 0 0 -0 0 29.16 -0 0 0 -0 0 29.16 -0 0 0 -0 -0 -29.16 -0 
0 10 0 0 0 -0 0 0 -0 0 22.5 -0 0 0 -0 0 22.5 -0 0 0 -0 -0 -22.5 -0 
0 10 0 0 0 -0 0 0 -0 0 15.84 -0 0 0 -0 0 15.84 -0 0 0 -0 -0 -15.84 -0 
0 10 0 0 0 -0 0 0 -0 0 9.72 -0 0 0 -0 0 9.72 -0 0 0 -0 -0 -9.72 -0 
0 10 0 0 0 -0 0 0 -0 0 4.68 -0 0 0 -0 0 4.68 -0 0 0 -0 -0 -4.68 -0 
0 10 0 0 0 -0 0 0 -0 0 1.26 -0 0 0 -0 0 1.26 -0 0 0 -0 -0 -1.26 -0 
0 10 0 0 0 -0 0 0 -0 0 0 -0 0 0 -0 0 0 -0 0 0 -0 0 0 -0 
0 10 0 0 0 -0 0 0 -0 0 1.26 -0 0 0 -0 0 1.26 -0 0 0 -0 -0 -1.26 -0 
0 10 0 0 0 -0 0 0 -0 0 4.68 -0 0 0 -0 0 4.68 -0 0 0 -0 -0 -4.68 -0 
0 10 0 0 0 -0 0 0 -0 0 9.72 -0 0 0 -0 0 9.72 -0 0 0 -0 -0 -9.72 -0 
0 10 0 0 0 -0 0 0 -0 0 15.84 -0 0 0 -0 0 15.84 -0 0 0 -0 -0 -15.84 -0 
0 10 0 0 0 -0 0 0 -0 0 22.5 -0 0 0 -0 0 22.5 -0 0 0 -0 -0 -22.5 -0 
0 10 0 0 0 -0 0 0 -0 0 29.16 -0 0 0 -0 0 29.16 -0 0 0 -0 -0 -29.16 -0 
0 10 0 0 0 -0 0 0 -0 0 35.28 -0 0 0 -0 0 35.28 -0 0 0 -0 -0 -35.28 -0 
0 10 0 0 0 -0 0 0 -0 0 40.32 -0 0 0 -0 0 40.32 -0 0 0 -0 -0 -40.32 -0 
0 10 0 0 0 -0 0 0 -0 0 43.74 -0 0 0 -0 0 43.74 -0 0 0 -0 -0 -43.74 -0 
0 10 0 0 0 -0 0 0 -0 0 45 -0 0 0 -0 0 45 -0 0 0 -0 -0 -45 -0 
0 10 0 0 0 -0 0 0 -0 0 43.74 -0 0 0 -0 0 43.74 -0 0 0 -0 -0 -43.74 -0 
